<svg xmlns:xlink="http://www.w3.org/1999/xlink" xmlns="http://www.w3.org/2000/svg" width="460.8pt" height="345.6pt" viewBox="0 0 460.8 345.6" version="1.1">
 <metadata>
  <rdf:RDF xmlns:dc="http://purl.org/dc/elements/1.1/" xmlns:cc="http://creativecommons.org/ns#" xmlns:rdf="http://www.w3.org/1999/02/22-rdf-syntax-ns#">
   <cc:Work>
    <dc:type rdf:resource="http://purl.org/dc/dcmitype/StillImage"></dc:type>
    <dc:date>2024-02-03T12:56:09.103303</dc:date>
    <dc:format>image/svg+xml</dc:format>
    <dc:creator>
     <cc:Agent>
      <dc:title>Matplotlib v3.8.2, https://matplotlib.org/</dc:title>
     </cc:Agent>
    </dc:creator>
   </cc:Work>
  </rdf:RDF>
 </metadata>
 <defs>
  <style type="text/css">*{stroke-linejoin: round; stroke-linecap: butt}</style>
 </defs>
 <g id="figure_1">
  <g id="patch_1">
   <path d="M 0 345.6  L 460.8 345.6  L 460.8 0  L 0 0  z " style="fill: #ffffff"></path>
  </g>
  <g id="axes_1">
   <g id="patch_2">
    <path d="M 57.6 307.584  L 414.72 307.584  L 414.72 41.472  L 57.6 41.472  z " style="fill: #ffffff"></path>
   </g>
   <g id="PathCollection_1">
    <path d="M 73.832727 199.981772  C 75.111676 199.981772 76.338415 199.47364 77.242768 198.569286  C 78.147121 197.664933 78.655253 196.438194 78.655253 195.159246  C 78.655253 193.880297 78.147121 192.653558 77.242768 191.749205  C 76.338415 190.844852 75.111676 190.33672 73.832727 190.33672  C 72.553778 190.33672 71.32704 190.844852 70.422687 191.749205  C 69.518333 192.653558 69.010201 193.880297 69.010201 195.159246  C 69.010201 196.438194 69.518333 197.664933 70.422687 198.569286  C 71.32704 199.47364 72.553778 199.981772 73.832727 199.981772  z " clip-path="url(#pe4de6450a8)" style="fill: #472d7b; stroke: #472d7b"></path>
    <path d="M 80.45833 210.193437  C 81.334752 210.193437 82.175397 209.845231 82.795121 209.225507  C 83.414845 208.605783 83.763051 207.765139 83.763051 206.888717  C 83.763051 206.012295 83.414845 205.17165 82.795121 204.551926  C 82.175397 203.932202 81.334752 203.583996 80.45833 203.583996  C 79.581908 203.583996 78.741264 203.932202 78.12154 204.551926  C 77.501816 205.17165 77.15361 206.012295 77.15361 206.888717  C 77.15361 207.765139 77.501816 208.605783 78.12154 209.225507  C 78.741264 209.845231 79.581908 210.193437 80.45833 210.193437  z " clip-path="url(#pe4de6450a8)" style="fill: #471063; stroke: #471063"></path>
    <path d="M 87.083933 250.914064  C 88.586485 250.914064 90.027698 250.317094 91.090162 249.25463  C 92.152626 248.192166 92.749596 246.750953 92.749596 245.248401  C 92.749596 243.74585 92.152626 242.304637 91.090162 241.242173  C 90.027698 240.179709 88.586485 239.582739 87.083933 239.582739  C 85.581382 239.582739 84.140169 240.179709 83.077705 241.242173  C 82.01524 242.304637 81.41827 243.74585 81.41827 245.248401  C 81.41827 246.750953 82.01524 248.192166 83.077705 249.25463  C 84.140169 250.317094 85.581382 250.914064 87.083933 250.914064  z " clip-path="url(#pe4de6450a8)" style="fill: #23a983; stroke: #23a983"></path>
    <path d="M 93.709536 201.531119  C 95.249974 201.531119 96.727526 200.919097 97.81678 199.829843  C 98.906033 198.740589 99.518056 197.263037 99.518056 195.7226  C 99.518056 194.182162 98.906033 192.70461 97.81678 191.615356  C 96.727526 190.526102 95.249974 189.91408 93.709536 189.91408  C 92.169099 189.91408 90.691546 190.526102 89.602293 191.615356  C 88.513039 192.70461 87.901017 194.182162 87.901017 195.7226  C 87.901017 197.263037 88.513039 198.740589 89.602293 199.829843  C 90.691546 200.919097 92.169099 201.531119 93.709536 201.531119  z " clip-path="url(#pe4de6450a8)" style="fill: #33638d; stroke: #33638d"></path>
    <path d="M 100.335139 237.824461  C 101.254365 237.824461 102.136066 237.459248 102.786058 236.809257  C 103.436049 236.159266 103.801261 235.277565 103.801261 234.358339  C 103.801261 233.439113 103.436049 232.557412 102.786058 231.907421  C 102.136066 231.257429 101.254365 230.892217 100.335139 230.892217  C 99.415913 230.892217 98.534212 231.257429 97.884221 231.907421  C 97.23423 232.557412 96.869017 233.439113 96.869017 234.358339  C 96.869017 235.277565 97.23423 236.159266 97.884221 236.809257  C 98.534212 237.459248 99.415913 237.824461 100.335139 237.824461  z " clip-path="url(#pe4de6450a8)" style="fill: #9dd93b; stroke: #9dd93b"></path>
    <path d="M 106.960742 190.193644  C 108.201307 190.193644 109.391229 189.700763 110.268441 188.823551  C 111.145653 187.946339 111.638534 186.756417 111.638534 185.515852  C 111.638534 184.275287 111.145653 183.085365 110.268441 182.208153  C 109.391229 181.330942 108.201307 180.83806 106.960742 180.83806  C 105.720177 180.83806 104.530255 181.330942 103.653044 182.208153  C 102.775832 183.085365 102.28295 184.275287 102.28295 185.515852  C 102.28295 186.756417 102.775832 187.946339 103.653044 188.823551  C 104.530255 189.700763 105.720177 190.193644 106.960742 190.193644  z " clip-path="url(#pe4de6450a8)" style="fill: #75d054; stroke: #75d054"></path>
    <path d="M 113.586345 202.64387  C 114.904293 202.64387 116.168439 202.120244 117.100368 201.188314  C 118.032298 200.256384 118.555924 198.992239 118.555924 197.674291  C 118.555924 196.356343 118.032298 195.092198 117.100368 194.160268  C 116.168439 193.228338 114.904293 192.704712 113.586345 192.704712  C 112.268397 192.704712 111.004252 193.228338 110.072322 194.160268  C 109.140392 195.092198 108.616766 196.356343 108.616766 197.674291  C 108.616766 198.992239 109.140392 200.256384 110.072322 201.188314  C 111.004252 202.120244 112.268397 202.64387 113.586345 202.64387  z " clip-path="url(#pe4de6450a8)" style="fill: #48186a; stroke: #48186a"></path>
    <path d="M 120.211948 193.519789  C 121.720014 193.519789 123.166516 192.920628 124.232879 191.854265  C 125.299242 190.787901 125.898403 189.341399 125.898403 187.833334  C 125.898403 186.325268 125.299242 184.878766 124.232879 183.812403  C 123.166516 182.746039 121.720014 182.146879 120.211948 182.146879  C 118.703883 182.146879 117.25738 182.746039 116.191017 183.812403  C 115.124654 184.878766 114.525493 186.325268 114.525493 187.833334  C 114.525493 189.341399 115.124654 190.787901 116.191017 191.854265  C 117.25738 192.920628 118.703883 193.519789 120.211948 193.519789  z " clip-path="url(#pe4de6450a8)" style="fill: #471063; stroke: #471063"></path>
    <path d="M 126.837551 256.237589  C 128.014356 256.237589 129.143121 255.770039 129.975248 254.937912  C 130.807375 254.105785 131.274925 252.97702 131.274925 251.800215  C 131.274925 250.62341 130.807375 249.494645 129.975248 248.662518  C 129.143121 247.830391 128.014356 247.362841 126.837551 247.362841  C 125.660746 247.362841 124.531981 247.830391 123.699854 248.662518  C 122.867727 249.494645 122.400177 250.62341 122.400177 251.800215  C 122.400177 252.97702 122.867727 254.105785 123.699854 254.937912  C 124.531981 255.770039 125.660746 256.237589 126.837551 256.237589  z " clip-path="url(#pe4de6450a8)" style="fill: #1f9a8a; stroke: #1f9a8a"></path>
    <path d="M 133.463154 203.912271  C 135.219683 203.912271 136.904505 203.214395 138.146558 201.972341  C 139.388612 200.730288 140.086488 199.045465 140.086488 197.288937  C 140.086488 195.532408 139.388612 193.847586 138.146558 192.605532  C 136.904505 191.363479 135.219683 190.665603 133.463154 190.665603  C 131.706625 190.665603 130.021803 191.363479 128.77975 192.605532  C 127.537696 193.847586 126.83982 195.532408 126.83982 197.288937  C 126.83982 199.045465 127.537696 200.730288 128.77975 201.972341  C 130.021803 203.214395 131.706625 203.912271 133.463154 203.912271  z " clip-path="url(#pe4de6450a8)" style="fill: #46337f; stroke: #46337f"></path>
    <path d="M 140.088757 298.421888  C 140.866833 298.421888 141.613146 298.112755 142.163329 297.562572  C 142.713512 297.012389 143.022645 296.266076 143.022645 295.488  C 143.022645 294.709924 142.713512 293.963611 142.163329 293.413428  C 141.613146 292.863245 140.866833 292.554112 140.088757 292.554112  C 139.310681 292.554112 138.564368 292.863245 138.014185 293.413428  C 137.464002 293.963611 137.154869 294.709924 137.154869 295.488  C 137.154869 296.266076 137.464002 297.012389 138.014185 297.562572  C 138.564368 298.112755 139.310681 298.421888 140.088757 298.421888  z " clip-path="url(#pe4de6450a8)" style="fill: #48186a; stroke: #48186a"></path>
    <path d="M 146.71436 196.597499  C 147.341978 196.597499 147.943975 196.348144 148.387768 195.904351  C 148.831561 195.460558 149.080916 194.858561 149.080916 194.230943  C 149.080916 193.603325 148.831561 193.001328 148.387768 192.557535  C 147.943975 192.113742 147.341978 191.864386 146.71436 191.864386  C 146.086742 191.864386 145.484745 192.113742 145.040952 192.557535  C 144.597159 193.001328 144.347803 193.603325 144.347803 194.230943  C 144.347803 194.858561 144.597159 195.460558 145.040952 195.904351  C 145.484745 196.348144 146.086742 196.597499 146.71436 196.597499  z " clip-path="url(#pe4de6450a8)" style="fill: #2eb37c; stroke: #2eb37c"></path>
    <path d="M 153.339963 247.92543  C 155.163724 247.92543 156.913034 247.200842 158.202628 245.911249  C 159.492221 244.621655 160.216809 242.872345 160.216809 241.048584  C 160.216809 239.224823 159.492221 237.475513 158.202628 236.185919  C 156.913034 234.896325 155.163724 234.171737 153.339963 234.171737  C 151.516202 234.171737 149.766892 234.896325 148.477298 236.185919  C 147.187704 237.475513 146.463116 239.224823 146.463116 241.048584  C 146.463116 242.872345 147.187704 244.621655 148.477298 245.911249  C 149.766892 247.200842 151.516202 247.92543 153.339963 247.92543  z " clip-path="url(#pe4de6450a8)" style="fill: #f1e51d; stroke: #f1e51d"></path>
    <path d="M 159.965566 199.650482  C 161.151223 199.650482 162.288479 199.179416 163.126865 198.34103  C 163.965251 197.502643 164.436318 196.365388 164.436318 195.179731  C 164.436318 193.994073 163.965251 192.856818 163.126865 192.018432  C 162.288479 191.180045 161.151223 190.708979 159.965566 190.708979  C 158.779909 190.708979 157.642653 191.180045 156.804267 192.018432  C 155.965881 192.856818 155.494814 193.994073 155.494814 195.179731  C 155.494814 196.365388 155.965881 197.502643 156.804267 198.34103  C 157.642653 199.179416 158.779909 199.650482 159.965566 199.650482  z " clip-path="url(#pe4de6450a8)" style="fill: #2e6d8e; stroke: #2e6d8e"></path>
    <path d="M 166.591169 220.854943  C 167.896901 220.854943 169.14933 220.336171 170.072622 219.412879  C 170.995914 218.489586 171.514687 217.237158 171.514687 215.931426  C 171.514687 214.625694 170.995914 213.373265 170.072622 212.449973  C 169.14933 211.526681 167.896901 211.007908 166.591169 211.007908  C 165.285437 211.007908 164.033008 211.526681 163.109716 212.449973  C 162.186424 213.373265 161.667651 214.625694 161.667651 215.931426  C 161.667651 217.237158 162.186424 218.489586 163.109716 219.412879  C 164.033008 220.336171 165.285437 220.854943 166.591169 220.854943  z " clip-path="url(#pe4de6450a8)" style="fill: #35b779; stroke: #35b779"></path>
    <path d="M 173.216772 184.001916  C 173.767479 184.001916 174.295704 183.783118 174.685112 183.39371  C 175.074521 183.004301 175.293319 182.476076 175.293319 181.925369  C 175.293319 181.374663 175.074521 180.846437 174.685112 180.457029  C 174.295704 180.06762 173.767479 179.848822 173.216772 179.848822  C 172.666065 179.848822 172.13784 180.06762 171.748431 180.457029  C 171.359023 180.846437 171.140225 181.374663 171.140225 181.925369  C 171.140225 182.476076 171.359023 183.004301 171.748431 183.39371  C 172.13784 183.783118 172.666065 184.001916 173.216772 184.001916  z " clip-path="url(#pe4de6450a8)" style="fill: #bade28; stroke: #bade28"></path>
    <path d="M 179.842375 228.627419  C 181.924305 228.627419 183.921244 227.800259 185.393391 226.328113  C 186.865538 224.855966 187.692697 222.859026 187.692697 220.777096  C 187.692697 218.695167 186.865538 216.698227 185.393391 215.22608  C 183.921244 213.753933 181.924305 212.926774 179.842375 212.926774  C 177.760445 212.926774 175.763505 213.753933 174.291359 215.22608  C 172.819212 216.698227 171.992052 218.695167 171.992052 220.777096  C 171.992052 222.859026 172.819212 224.855966 174.291359 226.328113  C 175.763505 227.800259 177.760445 228.627419 179.842375 228.627419  z " clip-path="url(#pe4de6450a8)" style="fill: #471063; stroke: #471063"></path>
    <path d="M 186.467978 166.138198  C 187.411822 166.138198 188.317135 165.763205 188.984534 165.095806  C 189.651932 164.428408 190.026926 163.523094 190.026926 162.57925  C 190.026926 161.635406 189.651932 160.730093 188.984534 160.062694  C 188.317135 159.395296 187.411822 159.020302 186.467978 159.020302  C 185.524134 159.020302 184.61882 159.395296 183.951422 160.062694  C 183.284023 160.730093 182.90903 161.635406 182.90903 162.57925  C 182.90903 163.523094 183.284023 164.428408 183.951422 165.095806  C 184.61882 165.763205 185.524134 166.138198 186.467978 166.138198  z " clip-path="url(#pe4de6450a8)" style="fill: #20a486; stroke: #20a486"></path>
    <path d="M 193.093581 210.091101  C 194.482186 210.091101 195.814104 209.539402 196.795995 208.55751  C 197.777887 207.575619 198.329586 206.2437 198.329586 204.855096  C 198.329586 203.466491 197.777887 202.134573 196.795995 201.152681  C 195.814104 200.170789 194.482186 199.61909 193.093581 199.61909  C 191.704976 199.61909 190.373058 200.170789 189.391166 201.152681  C 188.409274 202.134573 187.857576 203.466491 187.857576 204.855096  C 187.857576 206.2437 188.409274 207.575619 189.391166 208.55751  C 190.373058 209.539402 191.704976 210.091101 193.093581 210.091101  z " clip-path="url(#pe4de6450a8)" style="fill: #3b528b; stroke: #3b528b"></path>
    <path d="M 199.719184 117.095296  C 200.215678 117.095296 200.691903 116.898037 201.042977 116.546963  C 201.394052 116.195888 201.591311 115.719663 201.591311 115.223169  C 201.591311 114.726675 201.394052 114.250449 201.042977 113.899375  C 200.691903 113.548301 200.215678 113.351042 199.719184 113.351042  C 199.22269 113.351042 198.746464 113.548301 198.39539 113.899375  C 198.044316 114.250449 197.847057 114.726675 197.847057 115.223169  C 197.847057 115.719663 198.044316 116.195888 198.39539 116.546963  C 198.746464 116.898037 199.22269 117.095296 199.719184 117.095296  z " clip-path="url(#pe4de6450a8)" style="fill: #5ec962; stroke: #5ec962"></path>
    <path d="M 206.344787 179.51107  C 207.979053 179.51107 209.546604 178.861769 210.702205 177.706168  C 211.857806 176.550567 212.507107 174.983016 212.507107 173.34875  C 212.507107 171.714483 211.857806 170.146932 210.702205 168.991331  C 209.546604 167.83573 207.979053 167.186429 206.344787 167.186429  C 204.71052 167.186429 203.142969 167.83573 201.987368 168.991331  C 200.831767 170.146932 200.182466 171.714483 200.182466 173.34875  C 200.182466 174.983016 200.831767 176.550567 201.987368 177.706168  C 203.142969 178.861769 204.71052 179.51107 206.344787 179.51107  z " clip-path="url(#pe4de6450a8)" style="fill: #3e4c8a; stroke: #3e4c8a"></path>
    <path d="M 212.97039 255.409797  C 214.380082 255.409797 215.732227 254.84972 216.72903 253.852918  C 217.725833 252.856115 218.285909 251.50397 218.285909 250.094278  C 218.285909 248.684585 217.725833 247.332441 216.72903 246.335638  C 215.732227 245.338835 214.380082 244.778758 212.97039 244.778758  C 211.560697 244.778758 210.208553 245.338835 209.21175 246.335638  C 208.214947 247.332441 207.65487 248.684585 207.65487 250.094278  C 207.65487 251.50397 208.214947 252.856115 209.21175 253.852918  C 210.208553 254.84972 211.560697 255.409797 212.97039 255.409797  z " clip-path="url(#pe4de6450a8)" style="fill: #440154; stroke: #440154"></path>
    <path d="M 219.595993 184.377565  C 220.982887 184.377565 222.313165 183.826546 223.293848 182.845863  C 224.274531 181.86518 224.82555 180.534903 224.82555 179.148008  C 224.82555 177.761113 224.274531 176.430835 223.293848 175.450153  C 222.313165 174.46947 220.982887 173.918451 219.595993 173.918451  C 218.209098 173.918451 216.87882 174.46947 215.898137 175.450153  C 214.917455 176.430835 214.366435 177.761113 214.366435 179.148008  C 214.366435 180.534903 214.917455 181.86518 215.898137 182.845863  C 216.87882 183.826546 218.209098 184.377565 219.595993 184.377565  z " clip-path="url(#pe4de6450a8)" style="fill: #33638d; stroke: #33638d"></path>
    <path d="M 226.221596 177.94996  C 226.646978 177.94996 227.054995 177.780953 227.355786 177.480162  C 227.656577 177.179371 227.825584 176.771354 227.825584 176.345972  C 227.825584 175.920589 227.656577 175.512572 227.355786 175.211781  C 227.054995 174.91099 226.646978 174.741984 226.221596 174.741984  C 225.796213 174.741984 225.388196 174.91099 225.087405 175.211781  C 224.786614 175.512572 224.617608 175.920589 224.617608 176.345972  C 224.617608 176.771354 224.786614 177.179371 225.087405 177.480162  C 225.388196 177.780953 225.796213 177.94996 226.221596 177.94996  z " clip-path="url(#pe4de6450a8)" style="fill: #35b779; stroke: #35b779"></path>
    <path d="M 232.847199 155.813862  C 234.07472 155.813862 235.25213 155.326163 236.120119 154.458174  C 236.988107 153.590186 237.475806 152.412776 237.475806 151.185254  C 237.475806 149.957733 236.988107 148.780323 236.120119 147.912334  C 235.25213 147.044346 234.07472 146.556647 232.847199 146.556647  C 231.619677 146.556647 230.442267 147.044346 229.574279 147.912334  C 228.70629 148.780323 228.218591 149.957733 228.218591 151.185254  C 228.218591 152.412776 228.70629 153.590186 229.574279 154.458174  C 230.442267 155.326163 231.619677 155.813862 232.847199 155.813862  z " clip-path="url(#pe4de6450a8)" style="fill: #1fa088; stroke: #1fa088"></path>
    <path d="M 239.472801 160.432806  C 241.211621 160.432806 242.879458 159.741966 244.108989 158.512434  C 245.338521 157.282903 246.029361 155.615066 246.029361 153.876246  C 246.029361 152.137426 245.338521 150.46959 244.108989 149.240058  C 242.879458 148.010527 241.211621 147.319686 239.472801 147.319686  C 237.733981 147.319686 236.066145 148.010527 234.836614 149.240058  C 233.607082 150.46959 232.916242 152.137426 232.916242 153.876246  C 232.916242 155.615066 233.607082 157.282903 234.836614 158.512434  C 236.066145 159.741966 237.733981 160.432806 239.472801 160.432806  z " clip-path="url(#pe4de6450a8)" style="fill: #38588c; stroke: #38588c"></path>
    <path d="M 246.098404 169.982943  C 246.220286 169.982943 246.337191 169.934519 246.423375 169.848336  C 246.509558 169.762153 246.557982 169.645247 246.557982 169.523365  C 246.557982 169.401484 246.509558 169.284578 246.423375 169.198395  C 246.337191 169.112212 246.220286 169.063788 246.098404 169.063788  C 245.976523 169.063788 245.859617 169.112212 245.773434 169.198395  C 245.687251 169.284578 245.638827 169.401484 245.638827 169.523365  C 245.638827 169.645247 245.687251 169.762153 245.773434 169.848336  C 245.859617 169.934519 245.976523 169.982943 246.098404 169.982943  z " clip-path="url(#pe4de6450a8)" style="fill: #f1e51d; stroke: #f1e51d"></path>
    <path d="M 252.724007 151.863373  C 253.193655 151.863373 253.64413 151.67678 253.976221 151.34469  C 254.308312 151.012599 254.494905 150.562124 254.494905 150.092476  C 254.494905 149.622829 254.308312 149.172353 253.976221 148.840263  C 253.64413 148.508172 253.193655 148.321579 252.724007 148.321579  C 252.25436 148.321579 251.803885 148.508172 251.471794 148.840263  C 251.139703 149.172353 250.95311 149.622829 250.95311 150.092476  C 250.95311 150.562124 251.139703 151.012599 251.471794 151.34469  C 251.803885 151.67678 252.25436 151.863373 252.724007 151.863373  z " clip-path="url(#pe4de6450a8)" style="fill: #2c728e; stroke: #2c728e"></path>
    <path d="M 259.34961 142.741815  C 260.073147 142.741815 260.767147 142.454351 261.278764 141.942734  C 261.790382 141.431116 262.077846 140.737116 262.077846 140.01358  C 262.077846 139.290043 261.790382 138.596044 261.278764 138.084426  C 260.767147 137.572809 260.073147 137.285345 259.34961 137.285345  C 258.626074 137.285345 257.932074 137.572809 257.420457 138.084426  C 256.908839 138.596044 256.621375 139.290043 256.621375 140.01358  C 256.621375 140.737116 256.908839 141.431116 257.420457 141.942734  C 257.932074 142.454351 258.626074 142.741815 259.34961 142.741815  z " clip-path="url(#pe4de6450a8)" style="fill: #46337f; stroke: #46337f"></path>
    <path d="M 265.975213 135.411969  C 266.885545 135.411969 267.758714 135.050291 268.402415 134.406589  C 269.046117 133.762888 269.407795 132.889719 269.407795 131.979388  C 269.407795 131.069056 269.046117 130.195887 268.402415 129.552186  C 267.758714 128.908485 266.885545 128.546806 265.975213 128.546806  C 265.064882 128.546806 264.191713 128.908485 263.548012 129.552186  C 262.90431 130.195887 262.542632 131.069056 262.542632 131.979388  C 262.542632 132.889719 262.90431 133.762888 263.548012 134.406589  C 264.191713 135.050291 265.064882 135.411969 265.975213 135.411969  z " clip-path="url(#pe4de6450a8)" style="fill: #3b528b; stroke: #3b528b"></path>
    <path d="M 272.600816 119.024566  C 273.564028 119.024566 274.487919 118.641878 275.169012 117.960785  C 275.850106 117.279691 276.232794 116.3558 276.232794 115.392589  C 276.232794 114.429377 275.850106 113.505486 275.169012 112.824393  C 274.487919 112.1433 273.564028 111.760612 272.600816 111.760612  C 271.637605 111.760612 270.713714 112.1433 270.032621 112.824393  C 269.351527 113.505486 268.968839 114.429377 268.968839 115.392589  C 268.968839 116.3558 269.351527 117.279691 270.032621 117.960785  C 270.713714 118.641878 271.637605 119.024566 272.600816 119.024566  z " clip-path="url(#pe4de6450a8)" style="fill: #1f9a8a; stroke: #1f9a8a"></path>
    <path d="M 279.226419 149.066971  C 280.184602 149.066971 281.103669 148.686281 281.781207 148.008744  C 282.458745 147.331206 282.839435 146.412139 282.839435 145.453956  C 282.839435 144.495773 282.458745 143.576706 281.781207 142.899168  C 281.103669 142.221631 280.184602 141.840941 279.226419 141.840941  C 278.268236 141.840941 277.349169 142.221631 276.671632 142.899168  C 275.994094 143.576706 275.613404 144.495773 275.613404 145.453956  C 275.613404 146.412139 275.994094 147.331206 276.671632 148.008744  C 277.349169 148.686281 278.268236 149.066971 279.226419 149.066971  z " clip-path="url(#pe4de6450a8)" style="fill: #e5e419; stroke: #e5e419"></path>
    <path d="M 285.852022 160.881584  C 287.032769 160.881584 288.165315 160.412468 289.000229 159.577554  C 289.835143 158.74264 290.304259 157.610094 290.304259 156.429347  C 290.304259 155.2486 289.835143 154.116055 289.000229 153.281141  C 288.165315 152.446226 287.032769 151.977111 285.852022 151.977111  C 284.671275 151.977111 283.53873 152.446226 282.703815 153.281141  C 281.868901 154.116055 281.399785 155.2486 281.399785 156.429347  C 281.399785 157.610094 281.868901 158.74264 282.703815 159.577554  C 283.53873 160.412468 284.671275 160.881584 285.852022 160.881584  z " clip-path="url(#pe4de6450a8)" style="fill: #46337f; stroke: #46337f"></path>
    <path d="M 292.477625 103.908049  C 292.786106 103.908049 293.081994 103.785488 293.300123 103.567359  C 293.518252 103.34923 293.640812 103.053343 293.640812 102.744862  C 293.640812 102.436381 293.518252 102.140493 293.300123 101.922364  C 293.081994 101.704235 292.786106 101.581675 292.477625 101.581675  C 292.169144 101.581675 291.873257 101.704235 291.655128 101.922364  C 291.436999 102.140493 291.314438 102.436381 291.314438 102.744862  C 291.314438 103.053343 291.436999 103.34923 291.655128 103.567359  C 291.873257 103.785488 292.169144 103.908049 292.477625 103.908049  z " clip-path="url(#pe4de6450a8)" style="fill: #2a778e; stroke: #2a778e"></path>
    <path d="M 299.103228 128.333426  C 300.258586 128.333426 301.366778 127.874398 302.183739 127.057436  C 303.000701 126.240475 303.459729 125.132283 303.459729 123.976925  C 303.459729 122.821568 303.000701 121.713375 302.183739 120.896414  C 301.366778 120.079453 300.258586 119.620424 299.103228 119.620424  C 297.947871 119.620424 296.839678 120.079453 296.022717 120.896414  C 295.205756 121.713375 294.746727 122.821568 294.746727 123.976925  C 294.746727 125.132283 295.205756 126.240475 296.022717 127.057436  C 296.839678 127.874398 297.947871 128.333426 299.103228 128.333426  z " clip-path="url(#pe4de6450a8)" style="fill: #fde725; stroke: #fde725"></path>
    <path d="M 305.728831 137.325502  C 305.866083 137.325502 305.997733 137.270971 306.094785 137.173919  C 306.191837 137.076867 306.246367 136.945218 306.246367 136.807965  C 306.246367 136.670713 306.191837 136.539064 306.094785 136.442012  C 305.997733 136.34496 305.866083 136.290429 305.728831 136.290429  C 305.591579 136.290429 305.45993 136.34496 305.362878 136.442012  C 305.265826 136.539064 305.211295 136.670713 305.211295 136.807965  C 305.211295 136.945218 305.265826 137.076867 305.362878 137.173919  C 305.45993 137.270971 305.591579 137.325502 305.728831 137.325502  z " clip-path="url(#pe4de6450a8)" style="fill: #287c8e; stroke: #287c8e"></path>
    <path d="M 312.354434 117.542225  C 313.482098 117.542225 314.563728 117.094199 315.361107 116.29682  C 316.158486 115.499441 316.606511 114.417812 316.606511 113.290148  C 316.606511 112.162484 316.158486 111.080854 315.361107 110.283475  C 314.563728 109.486096 313.482098 109.03807 312.354434 109.03807  C 311.22677 109.03807 310.14514 109.486096 309.347761 110.283475  C 308.550383 111.080854 308.102357 112.162484 308.102357 113.290148  C 308.102357 114.417812 308.550383 115.499441 309.347761 116.29682  C 310.14514 117.094199 311.22677 117.542225 312.354434 117.542225  z " clip-path="url(#pe4de6450a8)" style="fill: #69cd5b; stroke: #69cd5b"></path>
    <path d="M 318.980037 110.625535  C 320.76484 110.625535 322.476782 109.916425 323.738828 108.654379  C 325.000874 107.392333 325.709984 105.68039 325.709984 103.895588  C 325.709984 102.110785 325.000874 100.398843 323.738828 99.136796  C 322.476782 97.87475 320.76484 97.165641 318.980037 97.165641  C 317.195234 97.165641 315.483292 97.87475 314.221246 99.136796  C 312.9592 100.398843 312.25009 102.110785 312.25009 103.895588  C 312.25009 105.68039 312.9592 107.392333 314.221246 108.654379  C 315.483292 109.916425 317.195234 110.625535 318.980037 110.625535  z " clip-path="url(#pe4de6450a8)" style="fill: #46085c; stroke: #46085c"></path>
    <path d="M 325.60564 67.701804  C 326.15557 67.701804 326.683051 67.483315 327.07191 67.094455  C 327.46077 66.705596 327.679259 66.178115 327.679259 65.628185  C 327.679259 65.078255 327.46077 64.550774 327.07191 64.161915  C 326.683051 63.773056 326.15557 63.554566 325.60564 63.554566  C 325.05571 63.554566 324.528229 63.773056 324.13937 64.161915  C 323.750511 64.550774 323.532021 65.078255 323.532021 65.628185  C 323.532021 66.178115 323.750511 66.705596 324.13937 67.094455  C 324.528229 67.483315 325.05571 67.701804 325.60564 67.701804  z " clip-path="url(#pe4de6450a8)" style="fill: #addc30; stroke: #addc30"></path>
    <path d="M 332.231243 107.746637  C 334.343671 107.746637 336.369864 106.90736 337.863576 105.413648  C 339.357289 103.919936 340.196565 101.893743 340.196565 99.781315  C 340.196565 97.668886 339.357289 95.642693 337.863576 94.148981  C 336.369864 92.655269 334.343671 91.815992 332.231243 91.815992  C 330.118815 91.815992 328.092622 92.655269 326.59891 94.148981  C 325.105197 95.642693 324.265921 97.668886 324.265921 99.781315  C 324.265921 101.893743 325.105197 103.919936 326.59891 105.413648  C 328.092622 106.90736 330.118815 107.746637 332.231243 107.746637  z " clip-path="url(#pe4de6450a8)" style="fill: #46085c; stroke: #46085c"></path>
    <path d="M 338.856846 116.013257  C 339.966779 116.013257 341.031401 115.572277 341.816242 114.787436  C 342.601083 114.002595 343.042063 112.937973 343.042063 111.82804  C 343.042063 110.718107 342.601083 109.653485 341.816242 108.868644  C 341.031401 108.083804 339.966779 107.642823 338.856846 107.642823  C 337.746913 107.642823 336.682291 108.083804 335.89745 108.868644  C 335.11261 109.653485 334.671629 110.718107 334.671629 111.82804  C 334.671629 112.937973 335.11261 114.002595 335.89745 114.787436  C 336.682291 115.572277 337.746913 116.013257 338.856846 116.013257  z " clip-path="url(#pe4de6450a8)" style="fill: #2e6d8e; stroke: #2e6d8e"></path>
    <path d="M 345.482449 90.185994  C 346.546075 90.185994 347.566281 89.763411 348.318378 89.011313  C 349.070476 88.259216 349.493059 87.23901 349.493059 86.175384  C 349.493059 85.111758 349.070476 84.091552 348.318378 83.339455  C 347.566281 82.587357 346.546075 82.164774 345.482449 82.164774  C 344.418823 82.164774 343.398617 82.587357 342.64652 83.339455  C 341.894422 84.091552 341.471839 85.111758 341.471839 86.175384  C 341.471839 87.23901 341.894422 88.259216 342.64652 89.011313  C 343.398617 89.763411 344.418823 90.185994 345.482449 90.185994  z " clip-path="url(#pe4de6450a8)" style="fill: #228b8d; stroke: #228b8d"></path>
    <path d="M 352.108052 72.642909  C 353.355482 72.642909 354.551989 72.1473 355.434055 71.265234  C 356.316121 70.383167 356.811731 69.186661 356.811731 67.939231  C 356.811731 66.6918 356.316121 65.495294 355.434055 64.613227  C 354.551989 63.731161 353.355482 63.235552 352.108052 63.235552  C 350.860622 63.235552 349.664115 63.731161 348.782049 64.613227  C 347.899983 65.495294 347.404373 66.6918 347.404373 67.939231  C 347.404373 69.186661 347.899983 70.383167 348.782049 71.265234  C 349.664115 72.1473 350.860622 72.642909 352.108052 72.642909  z " clip-path="url(#pe4de6450a8)" style="fill: #d8e219; stroke: #d8e219"></path>
    <path d="M 358.733655 77.540083  C 358.993882 77.540083 359.243485 77.436694 359.427493 77.252686  C 359.611501 77.068678 359.71489 76.819074 359.71489 76.558848  C 359.71489 76.298621 359.611501 76.049018 359.427493 75.86501  C 359.243485 75.681001 358.993882 75.577612 358.733655 75.577612  C 358.473428 75.577612 358.223825 75.681001 358.039817 75.86501  C 357.855809 76.049018 357.752419 76.298621 357.752419 76.558848  C 357.752419 76.819074 357.855809 77.068678 358.039817 77.252686  C 358.223825 77.436694 358.473428 77.540083 358.733655 77.540083  z " clip-path="url(#pe4de6450a8)" style="fill: #f1e51d; stroke: #f1e51d"></path>
    <path d="M 365.359258 148.657243  C 366.779882 148.657243 368.142512 148.092823 369.147045 147.08829  C 370.151578 146.083757 370.715998 144.721127 370.715998 143.300503  C 370.715998 141.879878 370.151578 140.517248 369.147045 139.512715  C 368.142512 138.508182 366.779882 137.943762 365.359258 137.943762  C 363.938634 137.943762 362.576004 138.508182 361.571471 139.512715  C 360.566938 140.517248 360.002518 141.879878 360.002518 143.300503  C 360.002518 144.721127 360.566938 146.083757 361.571471 147.08829  C 362.576004 148.092823 363.938634 148.657243 365.359258 148.657243  z " clip-path="url(#pe4de6450a8)" style="fill: #1f958b; stroke: #1f958b"></path>
    <path d="M 371.984861 142.46697  C 372.254213 142.46697 372.512568 142.359955 372.703029 142.169495  C 372.893489 141.979034 373.000504 141.720679 373.000504 141.451327  C 373.000504 141.181975 372.893489 140.923619 372.703029 140.733159  C 372.512568 140.542698 372.254213 140.435684 371.984861 140.435684  C 371.715509 140.435684 371.457153 140.542698 371.266693 140.733159  C 371.076232 140.923619 370.969218 141.181975 370.969218 141.451327  C 370.969218 141.720679 371.076232 141.979034 371.266693 142.169495  C 371.457153 142.359955 371.715509 142.46697 371.984861 142.46697  z " clip-path="url(#pe4de6450a8)" style="fill: #443983; stroke: #443983"></path>
    <path d="M 378.610464 129.619744  C 380.038314 129.619744 381.407876 129.052453 382.417518 128.04281  C 383.427161 127.033168 383.994452 125.663606 383.994452 124.235756  C 383.994452 122.807906 383.427161 121.438344 382.417518 120.428702  C 381.407876 119.419059 380.038314 118.851768 378.610464 118.851768  C 377.182614 118.851768 375.813052 119.419059 374.803409 120.428702  C 373.793767 121.438344 373.226476 122.807906 373.226476 124.235756  C 373.226476 125.663606 373.793767 127.033168 374.803409 128.04281  C 375.813052 129.052453 377.182614 129.619744 378.610464 129.619744  z " clip-path="url(#pe4de6450a8)" style="fill: #addc30; stroke: #addc30"></path>
    <path d="M 385.236067 128.310772  C 386.812379 128.310772 388.324341 127.684497 389.438962 126.569876  C 390.553582 125.455255 391.179858 123.943293 391.179858 122.366981  C 391.179858 120.79067 390.553582 119.278707 389.438962 118.164087  C 388.324341 117.049466 386.812379 116.423191 385.236067 116.423191  C 383.659755 116.423191 382.147793 117.049466 381.033172 118.164087  C 379.918551 119.278707 379.292276 120.79067 379.292276 122.366981  C 379.292276 123.943293 379.918551 125.455255 381.033172 126.569876  C 382.147793 127.684497 383.659755 128.310772 385.236067 128.310772  z " clip-path="url(#pe4de6450a8)" style="fill: #f1e51d; stroke: #f1e51d"></path>
    <path d="M 391.86167 72.235188  C 392.808905 72.235188 393.717471 71.858847 394.387268 71.189051  C 395.057064 70.519254 395.433405 69.610688 395.433405 68.663453  C 395.433405 67.716218 395.057064 66.807651 394.387268 66.137855  C 393.717471 65.468059 392.808905 65.091718 391.86167 65.091718  C 390.914435 65.091718 390.005868 65.468059 389.336072 66.137855  C 388.666275 66.807651 388.289935 67.716218 388.289935 68.663453  C 388.289935 69.610688 388.666275 70.519254 389.336072 71.189051  C 390.005868 71.858847 390.914435 72.235188 391.86167 72.235188  z " clip-path="url(#pe4de6450a8)" style="fill: #35b779; stroke: #35b779"></path>
    <path d="M 398.487273 57.326158  C 399.483948 57.326158 400.439936 56.930175 401.144692 56.225419  C 401.849447 55.520663 402.245431 54.564675 402.245431 53.568  C 402.245431 52.571325 401.849447 51.615337 401.144692 50.910581  C 400.439936 50.205825 399.483948 49.809842 398.487273 49.809842  C 397.490598 49.809842 396.53461 50.205825 395.829854 50.910581  C 395.125098 51.615337 394.729115 52.571325 394.729115 53.568  C 394.729115 54.564675 395.125098 55.520663 395.829854 56.225419  C 396.53461 56.930175 397.490598 57.326158 398.487273 57.326158  z " clip-path="url(#pe4de6450a8)" style="fill: #35b779; stroke: #35b779"></path>
   </g>
   <g id="matplotlib.axis_1">
    <g id="xtick_1">
     <g id="line2d_1">
      <defs>
       <path id="m5168c535b5" d="M 0 0  L 0 3.5  " style="stroke: #000000; stroke-width: 0.8"></path>
      </defs>
      <g>
       <use xlink:href="#m5168c535b5" x="73.832727" y="307.584" style="stroke: #000000; stroke-width: 0.8"></use>
      </g>
     </g>
     <g id="text_1">
      <!-- 0 -->
      <g transform="translate(70.651477 322.182437) scale(0.1 -0.1)">
       <defs>
        <path id="DejaVuSans-30" d="M 2034 4250  Q 1547 4250 1301 3770  Q 1056 3291 1056 2328  Q 1056 1369 1301 889  Q 1547 409 2034 409  Q 2525 409 2770 889  Q 3016 1369 3016 2328  Q 3016 3291 2770 3770  Q 2525 4250 2034 4250  z M 2034 4750  Q 2819 4750 3233 4129  Q 3647 3509 3647 2328  Q 3647 1150 3233 529  Q 2819 -91 2034 -91  Q 1250 -91 836 529  Q 422 1150 422 2328  Q 422 3509 836 4129  Q 1250 4750 2034 4750  z " transform="scale(0.015625)"></path>
       </defs>
       <use xlink:href="#DejaVuSans-30"></use>
      </g>
     </g>
    </g>
    <g id="xtick_2">
     <g id="line2d_2">
      <g>
       <use xlink:href="#m5168c535b5" x="140.088757" y="307.584" style="stroke: #000000; stroke-width: 0.8"></use>
      </g>
     </g>
     <g id="text_2">
      <!-- 10 -->
      <g transform="translate(133.726257 322.182437) scale(0.1 -0.1)">
       <defs>
        <path id="DejaVuSans-31" d="M 794 531  L 1825 531  L 1825 4091  L 703 3866  L 703 4441  L 1819 4666  L 2450 4666  L 2450 531  L 3481 531  L 3481 0  L 794 0  L 794 531  z " transform="scale(0.015625)"></path>
       </defs>
       <use xlink:href="#DejaVuSans-31"></use>
       <use xlink:href="#DejaVuSans-30" x="63.623047"></use>
      </g>
     </g>
    </g>
    <g id="xtick_3">
     <g id="line2d_3">
      <g>
       <use xlink:href="#m5168c535b5" x="206.344787" y="307.584" style="stroke: #000000; stroke-width: 0.8"></use>
      </g>
     </g>
     <g id="text_3">
      <!-- 20 -->
      <g transform="translate(199.982287 322.182437) scale(0.1 -0.1)">
       <defs>
        <path id="DejaVuSans-32" d="M 1228 531  L 3431 531  L 3431 0  L 469 0  L 469 531  Q 828 903 1448 1529  Q 2069 2156 2228 2338  Q 2531 2678 2651 2914  Q 2772 3150 2772 3378  Q 2772 3750 2511 3984  Q 2250 4219 1831 4219  Q 1534 4219 1204 4116  Q 875 4013 500 3803  L 500 4441  Q 881 4594 1212 4672  Q 1544 4750 1819 4750  Q 2544 4750 2975 4387  Q 3406 4025 3406 3419  Q 3406 3131 3298 2873  Q 3191 2616 2906 2266  Q 2828 2175 2409 1742  Q 1991 1309 1228 531  z " transform="scale(0.015625)"></path>
       </defs>
       <use xlink:href="#DejaVuSans-32"></use>
       <use xlink:href="#DejaVuSans-30" x="63.623047"></use>
      </g>
     </g>
    </g>
    <g id="xtick_4">
     <g id="line2d_4">
      <g>
       <use xlink:href="#m5168c535b5" x="272.600816" y="307.584" style="stroke: #000000; stroke-width: 0.8"></use>
      </g>
     </g>
     <g id="text_4">
      <!-- 30 -->
      <g transform="translate(266.238316 322.182437) scale(0.1 -0.1)">
       <defs>
        <path id="DejaVuSans-33" d="M 2597 2516  Q 3050 2419 3304 2112  Q 3559 1806 3559 1356  Q 3559 666 3084 287  Q 2609 -91 1734 -91  Q 1441 -91 1130 -33  Q 819 25 488 141  L 488 750  Q 750 597 1062 519  Q 1375 441 1716 441  Q 2309 441 2620 675  Q 2931 909 2931 1356  Q 2931 1769 2642 2001  Q 2353 2234 1838 2234  L 1294 2234  L 1294 2753  L 1863 2753  Q 2328 2753 2575 2939  Q 2822 3125 2822 3475  Q 2822 3834 2567 4026  Q 2313 4219 1838 4219  Q 1578 4219 1281 4162  Q 984 4106 628 3988  L 628 4550  Q 988 4650 1302 4700  Q 1616 4750 1894 4750  Q 2613 4750 3031 4423  Q 3450 4097 3450 3541  Q 3450 3153 3228 2886  Q 3006 2619 2597 2516  z " transform="scale(0.015625)"></path>
       </defs>
       <use xlink:href="#DejaVuSans-33"></use>
       <use xlink:href="#DejaVuSans-30" x="63.623047"></use>
      </g>
     </g>
    </g>
    <g id="xtick_5">
     <g id="line2d_5">
      <g>
       <use xlink:href="#m5168c535b5" x="338.856846" y="307.584" style="stroke: #000000; stroke-width: 0.8"></use>
      </g>
     </g>
     <g id="text_5">
      <!-- 40 -->
      <g transform="translate(332.494346 322.182437) scale(0.1 -0.1)">
       <defs>
        <path id="DejaVuSans-34" d="M 2419 4116  L 825 1625  L 2419 1625  L 2419 4116  z M 2253 4666  L 3047 4666  L 3047 1625  L 3713 1625  L 3713 1100  L 3047 1100  L 3047 0  L 2419 0  L 2419 1100  L 313 1100  L 313 1709  L 2253 4666  z " transform="scale(0.015625)"></path>
       </defs>
       <use xlink:href="#DejaVuSans-34"></use>
       <use xlink:href="#DejaVuSans-30" x="63.623047"></use>
      </g>
     </g>
    </g>
    <g id="xtick_6">
     <g id="line2d_6">
      <g>
       <use xlink:href="#m5168c535b5" x="405.112876" y="307.584" style="stroke: #000000; stroke-width: 0.8"></use>
      </g>
     </g>
     <g id="text_6">
      <!-- 50 -->
      <g transform="translate(398.750376 322.182437) scale(0.1 -0.1)">
       <defs>
        <path id="DejaVuSans-35" d="M 691 4666  L 3169 4666  L 3169 4134  L 1269 4134  L 1269 2991  Q 1406 3038 1543 3061  Q 1681 3084 1819 3084  Q 2600 3084 3056 2656  Q 3513 2228 3513 1497  Q 3513 744 3044 326  Q 2575 -91 1722 -91  Q 1428 -91 1123 -41  Q 819 9 494 109  L 494 744  Q 775 591 1075 516  Q 1375 441 1709 441  Q 2250 441 2565 725  Q 2881 1009 2881 1497  Q 2881 1984 2565 2268  Q 2250 2553 1709 2553  Q 1456 2553 1204 2497  Q 953 2441 691 2322  L 691 4666  z " transform="scale(0.015625)"></path>
       </defs>
       <use xlink:href="#DejaVuSans-35"></use>
       <use xlink:href="#DejaVuSans-30" x="63.623047"></use>
      </g>
     </g>
    </g>
    <g id="text_7">
     <!-- entry a -->
     <g transform="translate(218.286563 335.860562) scale(0.1 -0.1)">
      <defs>
       <path id="DejaVuSans-65" d="M 3597 1894  L 3597 1613  L 953 1613  Q 991 1019 1311 708  Q 1631 397 2203 397  Q 2534 397 2845 478  Q 3156 559 3463 722  L 3463 178  Q 3153 47 2828 -22  Q 2503 -91 2169 -91  Q 1331 -91 842 396  Q 353 884 353 1716  Q 353 2575 817 3079  Q 1281 3584 2069 3584  Q 2775 3584 3186 3129  Q 3597 2675 3597 1894  z M 3022 2063  Q 3016 2534 2758 2815  Q 2500 3097 2075 3097  Q 1594 3097 1305 2825  Q 1016 2553 972 2059  L 3022 2063  z " transform="scale(0.015625)"></path>
       <path id="DejaVuSans-6e" d="M 3513 2113  L 3513 0  L 2938 0  L 2938 2094  Q 2938 2591 2744 2837  Q 2550 3084 2163 3084  Q 1697 3084 1428 2787  Q 1159 2491 1159 1978  L 1159 0  L 581 0  L 581 3500  L 1159 3500  L 1159 2956  Q 1366 3272 1645 3428  Q 1925 3584 2291 3584  Q 2894 3584 3203 3211  Q 3513 2838 3513 2113  z " transform="scale(0.015625)"></path>
       <path id="DejaVuSans-74" d="M 1172 4494  L 1172 3500  L 2356 3500  L 2356 3053  L 1172 3053  L 1172 1153  Q 1172 725 1289 603  Q 1406 481 1766 481  L 2356 481  L 2356 0  L 1766 0  Q 1100 0 847 248  Q 594 497 594 1153  L 594 3053  L 172 3053  L 172 3500  L 594 3500  L 594 4494  L 1172 4494  z " transform="scale(0.015625)"></path>
       <path id="DejaVuSans-72" d="M 2631 2963  Q 2534 3019 2420 3045  Q 2306 3072 2169 3072  Q 1681 3072 1420 2755  Q 1159 2438 1159 1844  L 1159 0  L 581 0  L 581 3500  L 1159 3500  L 1159 2956  Q 1341 3275 1631 3429  Q 1922 3584 2338 3584  Q 2397 3584 2469 3576  Q 2541 3569 2628 3553  L 2631 2963  z " transform="scale(0.015625)"></path>
       <path id="DejaVuSans-79" d="M 2059 -325  Q 1816 -950 1584 -1140  Q 1353 -1331 966 -1331  L 506 -1331  L 506 -850  L 844 -850  Q 1081 -850 1212 -737  Q 1344 -625 1503 -206  L 1606 56  L 191 3500  L 800 3500  L 1894 763  L 2988 3500  L 3597 3500  L 2059 -325  z " transform="scale(0.015625)"></path>
       <path id="DejaVuSans-20" transform="scale(0.015625)"></path>
       <path id="DejaVuSans-61" d="M 2194 1759  Q 1497 1759 1228 1600  Q 959 1441 959 1056  Q 959 750 1161 570  Q 1363 391 1709 391  Q 2188 391 2477 730  Q 2766 1069 2766 1631  L 2766 1759  L 2194 1759  z M 3341 1997  L 3341 0  L 2766 0  L 2766 531  Q 2569 213 2275 61  Q 1981 -91 1556 -91  Q 1019 -91 701 211  Q 384 513 384 1019  Q 384 1609 779 1909  Q 1175 2209 1959 2209  L 2766 2209  L 2766 2266  Q 2766 2663 2505 2880  Q 2244 3097 1772 3097  Q 1472 3097 1187 3025  Q 903 2953 641 2809  L 641 3341  Q 956 3463 1253 3523  Q 1550 3584 1831 3584  Q 2591 3584 2966 3190  Q 3341 2797 3341 1997  z " transform="scale(0.015625)"></path>
      </defs>
      <use xlink:href="#DejaVuSans-65"></use>
      <use xlink:href="#DejaVuSans-6e" x="61.523438"></use>
      <use xlink:href="#DejaVuSans-74" x="124.902344"></use>
      <use xlink:href="#DejaVuSans-72" x="164.111328"></use>
      <use xlink:href="#DejaVuSans-79" x="205.224609"></use>
      <use xlink:href="#DejaVuSans-20" x="264.404297"></use>
      <use xlink:href="#DejaVuSans-61" x="296.191406"></use>
     </g>
    </g>
   </g>
   <g id="matplotlib.axis_2">
    <g id="ytick_1">
     <g id="line2d_7">
      <defs>
       <path id="mac80eb076d" d="M 0 0  L -3.5 0  " style="stroke: #000000; stroke-width: 0.8"></path>
      </defs>
      <g>
       <use xlink:href="#mac80eb076d" x="57.6" y="287.995731" style="stroke: #000000; stroke-width: 0.8"></use>
      </g>
     </g>
     <g id="text_8">
      <!-- −10 -->
      <g transform="translate(29.495313 291.79495) scale(0.1 -0.1)">
       <defs>
        <path id="DejaVuSans-2212" d="M 678 2272  L 4684 2272  L 4684 1741  L 678 1741  L 678 2272  z " transform="scale(0.015625)"></path>
       </defs>
       <use xlink:href="#DejaVuSans-2212"></use>
       <use xlink:href="#DejaVuSans-31" x="83.789062"></use>
       <use xlink:href="#DejaVuSans-30" x="147.412109"></use>
      </g>
     </g>
    </g>
    <g id="ytick_2">
     <g id="line2d_8">
      <g>
       <use xlink:href="#mac80eb076d" x="57.6" y="249.785576" style="stroke: #000000; stroke-width: 0.8"></use>
      </g>
     </g>
     <g id="text_9">
      <!-- 0 -->
      <g transform="translate(44.2375 253.584795) scale(0.1 -0.1)">
       <use xlink:href="#DejaVuSans-30"></use>
      </g>
     </g>
    </g>
    <g id="ytick_3">
     <g id="line2d_9">
      <g>
       <use xlink:href="#mac80eb076d" x="57.6" y="211.575421" style="stroke: #000000; stroke-width: 0.8"></use>
      </g>
     </g>
     <g id="text_10">
      <!-- 10 -->
      <g transform="translate(37.875 215.37464) scale(0.1 -0.1)">
       <use xlink:href="#DejaVuSans-31"></use>
       <use xlink:href="#DejaVuSans-30" x="63.623047"></use>
      </g>
     </g>
    </g>
    <g id="ytick_4">
     <g id="line2d_10">
      <g>
       <use xlink:href="#mac80eb076d" x="57.6" y="173.365266" style="stroke: #000000; stroke-width: 0.8"></use>
      </g>
     </g>
     <g id="text_11">
      <!-- 20 -->
      <g transform="translate(37.875 177.164484) scale(0.1 -0.1)">
       <use xlink:href="#DejaVuSans-32"></use>
       <use xlink:href="#DejaVuSans-30" x="63.623047"></use>
      </g>
     </g>
    </g>
    <g id="ytick_5">
     <g id="line2d_11">
      <g>
       <use xlink:href="#mac80eb076d" x="57.6" y="135.155111" style="stroke: #000000; stroke-width: 0.8"></use>
      </g>
     </g>
     <g id="text_12">
      <!-- 30 -->
      <g transform="translate(37.875 138.954329) scale(0.1 -0.1)">
       <use xlink:href="#DejaVuSans-33"></use>
       <use xlink:href="#DejaVuSans-30" x="63.623047"></use>
      </g>
     </g>
    </g>
    <g id="ytick_6">
     <g id="line2d_12">
      <g>
       <use xlink:href="#mac80eb076d" x="57.6" y="96.944956" style="stroke: #000000; stroke-width: 0.8"></use>
      </g>
     </g>
     <g id="text_13">
      <!-- 40 -->
      <g transform="translate(37.875 100.744174) scale(0.1 -0.1)">
       <use xlink:href="#DejaVuSans-34"></use>
       <use xlink:href="#DejaVuSans-30" x="63.623047"></use>
      </g>
     </g>
    </g>
    <g id="ytick_7">
     <g id="line2d_13">
      <g>
       <use xlink:href="#mac80eb076d" x="57.6" y="58.734801" style="stroke: #000000; stroke-width: 0.8"></use>
      </g>
     </g>
     <g id="text_14">
      <!-- 50 -->
      <g transform="translate(37.875 62.534019) scale(0.1 -0.1)">
       <use xlink:href="#DejaVuSans-35"></use>
       <use xlink:href="#DejaVuSans-30" x="63.623047"></use>
      </g>
     </g>
    </g>
    <g id="text_15">
     <!-- entry b -->
     <g transform="translate(23.415625 192.511594) rotate(-90) scale(0.1 -0.1)">
      <defs>
       <path id="DejaVuSans-62" d="M 3116 1747  Q 3116 2381 2855 2742  Q 2594 3103 2138 3103  Q 1681 3103 1420 2742  Q 1159 2381 1159 1747  Q 1159 1113 1420 752  Q 1681 391 2138 391  Q 2594 391 2855 752  Q 3116 1113 3116 1747  z M 1159 2969  Q 1341 3281 1617 3432  Q 1894 3584 2278 3584  Q 2916 3584 3314 3078  Q 3713 2572 3713 1747  Q 3713 922 3314 415  Q 2916 -91 2278 -91  Q 1894 -91 1617 61  Q 1341 213 1159 525  L 1159 0  L 581 0  L 581 4863  L 1159 4863  L 1159 2969  z " transform="scale(0.015625)"></path>
      </defs>
      <use xlink:href="#DejaVuSans-65"></use>
      <use xlink:href="#DejaVuSans-6e" x="61.523438"></use>
      <use xlink:href="#DejaVuSans-74" x="124.902344"></use>
      <use xlink:href="#DejaVuSans-72" x="164.111328"></use>
      <use xlink:href="#DejaVuSans-79" x="205.224609"></use>
      <use xlink:href="#DejaVuSans-20" x="264.404297"></use>
      <use xlink:href="#DejaVuSans-62" x="296.191406"></use>
     </g>
    </g>
   </g>
   <g id="patch_3">
    <path d="M 57.6 307.584  L 57.6 41.472  " style="fill: none; stroke: #000000; stroke-width: 0.8; stroke-linejoin: miter; stroke-linecap: square"></path>
   </g>
   <g id="patch_4">
    <path d="M 414.72 307.584  L 414.72 41.472  " style="fill: none; stroke: #000000; stroke-width: 0.8; stroke-linejoin: miter; stroke-linecap: square"></path>
   </g>
   <g id="patch_5">
    <path d="M 57.6 307.584  L 414.72 307.584  " style="fill: none; stroke: #000000; stroke-width: 0.8; stroke-linejoin: miter; stroke-linecap: square"></path>
   </g>
   <g id="patch_6">
    <path d="M 57.6 41.472  L 414.72 41.472  " style="fill: none; stroke: #000000; stroke-width: 0.8; stroke-linejoin: miter; stroke-linecap: square"></path>
   </g>
  </g>
 </g>
 <defs>
  <clipPath id="pe4de6450a8">
   <rect x="57.6" y="41.472" width="357.12" height="266.112"></rect>
  </clipPath>
 </defs>
</svg>